<mxfile host="app.diagrams.net" agent="Mozilla/5.0 (Windows NT 10.0; Win64; x64) AppleWebKit/537.36 (KHTML, like Gecko) Chrome/127.0.0.0 Safari/537.36" version="24.7.6">
  <diagram id="Z08eTgGWAjNeXDMgQ9Qe" name="Halaman-1">
    <mxGraphModel dx="880" dy="468" grid="1" gridSize="10" guides="1" tooltips="1" connect="1" arrows="1" fold="1" page="1" pageScale="1" pageWidth="827" pageHeight="1169" math="0" shadow="0">
      <root>
        <mxCell id="0" />
        <mxCell id="1" parent="0" />
        <mxCell id="qkGCgfdNhCn7gsHB5-3L-1" value="Admin / Mahasiswa" style="swimlane;whiteSpace=wrap;html=1;startSize=30;" parent="1" vertex="1">
          <mxGeometry x="50" y="40" width="200" height="490" as="geometry" />
        </mxCell>
        <mxCell id="qkGCgfdNhCn7gsHB5-3L-2" style="edgeStyle=orthogonalEdgeStyle;rounded=0;orthogonalLoop=1;jettySize=auto;html=1;entryX=0.5;entryY=0;entryDx=0;entryDy=0;" parent="qkGCgfdNhCn7gsHB5-3L-1" source="qkGCgfdNhCn7gsHB5-3L-3" target="qkGCgfdNhCn7gsHB5-3L-4" edge="1">
          <mxGeometry relative="1" as="geometry" />
        </mxCell>
        <mxCell id="qkGCgfdNhCn7gsHB5-3L-3" value="" style="ellipse;html=1;shape=startState;fillColor=#000000;strokeColor=#ff0000;" parent="qkGCgfdNhCn7gsHB5-3L-1" vertex="1">
          <mxGeometry x="80" y="40" width="30" height="30" as="geometry" />
        </mxCell>
        <mxCell id="qkGCgfdNhCn7gsHB5-3L-4" value="Menekan Tombol&lt;div&gt;Action Sit&lt;/div&gt;" style="rounded=1;whiteSpace=wrap;html=1;" parent="qkGCgfdNhCn7gsHB5-3L-1" vertex="1">
          <mxGeometry x="35" y="110" width="120" height="60" as="geometry" />
        </mxCell>
        <mxCell id="qkGCgfdNhCn7gsHB5-3L-5" value="Sistem" style="swimlane;whiteSpace=wrap;html=1;startSize=30;" parent="1" vertex="1">
          <mxGeometry x="250" y="40" width="200" height="500" as="geometry" />
        </mxCell>
        <mxCell id="GL0AJZSaC2y5OgPxfq0Y-1" style="edgeStyle=orthogonalEdgeStyle;rounded=0;orthogonalLoop=1;jettySize=auto;html=1;entryX=0.5;entryY=0;entryDx=0;entryDy=0;" edge="1" parent="qkGCgfdNhCn7gsHB5-3L-5" source="qkGCgfdNhCn7gsHB5-3L-6" target="m9GyJORlyUVd17cj6H3Q-4">
          <mxGeometry relative="1" as="geometry" />
        </mxCell>
        <mxCell id="qkGCgfdNhCn7gsHB5-3L-6" value="Menampilkan Pelajaran&amp;nbsp;" style="whiteSpace=wrap;html=1;rounded=1;" parent="qkGCgfdNhCn7gsHB5-3L-5" vertex="1">
          <mxGeometry x="35" y="110" width="120" height="60" as="geometry" />
        </mxCell>
        <mxCell id="m9GyJORlyUVd17cj6H3Q-1" value="" style="ellipse;html=1;shape=endState;fillColor=#000000;strokeColor=#ff0000;" parent="qkGCgfdNhCn7gsHB5-3L-5" vertex="1">
          <mxGeometry x="80" y="450" width="30" height="30" as="geometry" />
        </mxCell>
        <mxCell id="GL0AJZSaC2y5OgPxfq0Y-2" style="rounded=0;orthogonalLoop=1;jettySize=auto;html=1;exitX=0.5;exitY=1;exitDx=0;exitDy=0;entryX=0.5;entryY=0;entryDx=0;entryDy=0;" edge="1" parent="qkGCgfdNhCn7gsHB5-3L-5" source="m9GyJORlyUVd17cj6H3Q-4" target="GL0AJZSaC2y5OgPxfq0Y-6">
          <mxGeometry relative="1" as="geometry">
            <mxPoint x="99.86" y="307" as="sourcePoint" />
            <mxPoint x="120" y="330" as="targetPoint" />
          </mxGeometry>
        </mxCell>
        <mxCell id="GL0AJZSaC2y5OgPxfq0Y-4" value="Ya" style="edgeLabel;html=1;align=center;verticalAlign=middle;resizable=0;points=[];" vertex="1" connectable="0" parent="GL0AJZSaC2y5OgPxfq0Y-2">
          <mxGeometry x="-0.4387" y="2" relative="1" as="geometry">
            <mxPoint x="-2" y="3" as="offset" />
          </mxGeometry>
        </mxCell>
        <mxCell id="GL0AJZSaC2y5OgPxfq0Y-3" style="edgeStyle=orthogonalEdgeStyle;rounded=0;orthogonalLoop=1;jettySize=auto;html=1;exitX=1;exitY=0.5;exitDx=0;exitDy=0;entryX=1;entryY=0.5;entryDx=0;entryDy=0;" edge="1" parent="qkGCgfdNhCn7gsHB5-3L-5" source="m9GyJORlyUVd17cj6H3Q-4" target="qkGCgfdNhCn7gsHB5-3L-6">
          <mxGeometry relative="1" as="geometry">
            <Array as="points">
              <mxPoint x="180" y="262" />
              <mxPoint x="180" y="140" />
            </Array>
          </mxGeometry>
        </mxCell>
        <mxCell id="GL0AJZSaC2y5OgPxfq0Y-5" value="Tidak" style="edgeLabel;html=1;align=center;verticalAlign=middle;resizable=0;points=[];" vertex="1" connectable="0" parent="GL0AJZSaC2y5OgPxfq0Y-3">
          <mxGeometry x="-0.7892" relative="1" as="geometry">
            <mxPoint as="offset" />
          </mxGeometry>
        </mxCell>
        <mxCell id="m9GyJORlyUVd17cj6H3Q-4" value="Waktunya Pulang?" style="rhombus;whiteSpace=wrap;html=1;" parent="qkGCgfdNhCn7gsHB5-3L-5" vertex="1">
          <mxGeometry x="50" y="217" width="90" height="90" as="geometry" />
        </mxCell>
        <mxCell id="GL0AJZSaC2y5OgPxfq0Y-7" style="edgeStyle=orthogonalEdgeStyle;rounded=0;orthogonalLoop=1;jettySize=auto;html=1;entryX=0.5;entryY=0;entryDx=0;entryDy=0;" edge="1" parent="qkGCgfdNhCn7gsHB5-3L-5" source="GL0AJZSaC2y5OgPxfq0Y-6" target="m9GyJORlyUVd17cj6H3Q-1">
          <mxGeometry relative="1" as="geometry" />
        </mxCell>
        <mxCell id="GL0AJZSaC2y5OgPxfq0Y-6" value="Kembali ke Scene Gameplay" style="whiteSpace=wrap;html=1;rounded=1;" vertex="1" parent="qkGCgfdNhCn7gsHB5-3L-5">
          <mxGeometry x="35" y="350" width="120" height="60" as="geometry" />
        </mxCell>
        <mxCell id="qkGCgfdNhCn7gsHB5-3L-9" value="" style="edgeStyle=orthogonalEdgeStyle;rounded=0;orthogonalLoop=1;jettySize=auto;html=1;exitX=1;exitY=0.5;exitDx=0;exitDy=0;" parent="1" source="qkGCgfdNhCn7gsHB5-3L-4" target="qkGCgfdNhCn7gsHB5-3L-6" edge="1">
          <mxGeometry relative="1" as="geometry">
            <mxPoint x="220" y="170.0285714285714" as="sourcePoint" />
          </mxGeometry>
        </mxCell>
      </root>
    </mxGraphModel>
  </diagram>
</mxfile>
